<svg class="icon" style="width: 1em;height: 1em;vertical-align: middle;fill: currentColor;overflow: hidden;" viewBox="0 0 1024 1024" version="1.1" xmlns="http://www.w3.org/2000/svg" p-id="7944"><path d="M512 1024C229.7 1024 0 794.3 0 512S229.7 0 512 0s512 229.7 512 512-229.7 512-512 512z m0-952.6C269.1 71.4 71.4 269 71.4 512S269 952.6 512 952.6 952.6 755 952.6 512 754.9 71.4 512 71.4z" fill="#0824A8"></path><path d="M774 547.7H250c-19.7 0-35.7-16-35.7-35.7s16-35.7 35.7-35.7h523.9c19.7 0 35.7 16 35.7 35.7s-15.9 35.7-35.6 35.7z" fill="#333"></path></svg>
