<svg class="icon" style="width: 1em;height: 1em;vertical-align: middle;fill: currentColor;overflow: hidden;" viewBox="0 0 1024 1024" version="1.1" xmlns="http://www.w3.org/2000/svg"><path d="M512 512m-512 0a512 512 0 1 0 1024 0 512 512 0 1 0-1024 0Z" fill="#0824A8"></path><path d="M713.216 462.336H310.784c-27.648 0-49.664 22.528-49.664 49.664s22.528 49.664 49.664 49.664h402.432c27.648 0 49.664-22.528 49.664-49.664s-22.528-49.664-49.664-49.664z" fill="#FFFFFF" p-id="7226"></path><path d="M462.336 310.784v402.432c0 27.648 22.528 49.664 49.664 49.664s49.664-22.528 49.664-49.664V310.784c0-27.648-22.528-49.664-49.664-49.664s-49.664 22.528-49.664 49.664z" fill="#FFFFFF"></path></svg>
