<svg class="icon" style="width: 1em;height: 1em;vertical-align: middle;fill: currentColor;overflow: hidden;" viewBox="0 0 1024 1024" version="1.1" xmlns="http://www.w3.org/2000/svg" p-id="4670"><path d="M625.5 151.2c-15.5-10.6-35.7-12.4-55.5-4.8L287.8 254.3c-3 1.2-5.9 2.6-8.6 4.3-3.6 2.2-7.7 3.4-12 3.4H142c-42 0-76 34-76 75.9v353.8c0 41.9 34 75.9 75.9 75.9h125.3c4.2 0 8.4 1.2 12 3.4 2.7 1.7 5.6 3.1 8.6 4.3L570 883.2c8.1 3.1 16.3 4.6 24.2 4.6 11.4 0 22.2-3.2 31.3-9.5 13.9-9.6 21.9-24.9 21.9-42.1v-643c0-17-8-32.4-21.9-42zM171 344h58.2c12.7 0 22.9 10.3 22.9 22.9v295.8c0 12.7-10.3 22.9-22.9 22.9H171c-12.7 0-22.9-10.3-22.9-22.9V366.9C148 354.2 158.3 344 171 344z m363.3 437.7l-185.4-70.9c-8.9-3.4-14.7-11.9-14.7-21.4V340.2c0-9.5 5.9-18 14.7-21.4l185.4-70.9c15-5.7 31.1 5.3 31.1 21.4v491c0 16.1-16.1 27.2-31.1 21.4zM919.9 555.3H785.5c-22.4 0-40.5-18.1-40.5-40.5s18.1-40.5 40.5-40.5h134.4c22.4 0 40.5 18.1 40.5 40.5s-18.2 40.5-40.5 40.5zM928.8 268.4l-95 95c-15.8 15.8-41.5 15.8-57.3 0-15.8-15.8-15.8-41.5 0-57.3l95-95c15.8-15.8 41.5-15.8 57.3 0 15.8 15.9 15.8 41.5 0 57.3zM928.8 761.2l-95-95c-15.8-15.8-41.5-15.8-57.3 0-15.8 15.8-15.8 41.5 0 57.3l95 95c15.8 15.8 41.5 15.8 57.3 0 15.8-15.9 15.8-41.5 0-57.3z"  fill="#0824A8"></path></svg>
