<svg class="icon" style="width: 1em;height: 1em;vertical-align: middle;fill: currentColor;overflow: hidden;" viewBox="0 0 1024 1024" version="1.1" xmlns="http://www.w3.org/2000/svg"><path d="M512 512m-512 0a512 512 0 1 0 1024 0 512 512 0 1 0-1024 0Z" fill="rgba(255,255,255,0.7)" p-id="6263"></path><path d="M555.323077 512l185.107692-185.107692c11.815385-11.815385 11.815385-31.507692 0-43.323077s-31.507692-11.815385-43.323077 0L512 468.676923 326.892308 283.569231c-11.815385-11.815385-31.507692-11.815385-43.323077 0s-11.815385 31.507692 0 43.323077l185.107692 185.107692-185.107692 185.107692c-11.815385 11.815385-11.815385 31.507692 0 43.323077 7.876923 3.938462 15.753846 7.876923 23.630769 7.876923s15.753846-3.938462 19.692308-7.876923l185.107692-185.107692 185.107692 185.107692c3.938462 3.938462 11.815385 7.876923 19.692308 7.876923s15.753846-3.938462 19.692308-7.876923c11.815385-11.815385 11.815385-31.507692 0-43.323077L555.323077 512z" fill="#333"></path></svg>
