<svg class="icon" style="width: 1em;height: 1em;vertical-align: middle;fill: currentColor;overflow: hidden;" viewBox="0 0 1024 1024" version="1.1" xmlns="http://www.w3.org/2000/svg" p-id="8818"><path d="M355.968 896a16 16 0 0 0 15.904-17.984l-72-576a16 16 0 0 0-31.744 3.968l72 576a16 16 0 0 0 15.84 14.016z" fill="#5465CF"></path><path d="M128 256h35.744l87.936 707.936a32 32 0 0 0 31.744 28.064h457.152a32 32 0 0 0 31.744-28.064L860.256 256H896a32 32 0 1 0 0-64H128a32 32 0 1 0 0 64z m667.776 0l-83.52 672H311.744L228.192 256h567.584zM217.728 147.04L255.52 96h512.96l37.792 51.04a31.968 31.968 0 1 0 51.456-38.08l-47.424-64A32.032 32.032 0 0 0 784.64 32H239.36c-10.112 0-19.68 4.8-25.696 12.96l-47.424 64a32.032 32.032 0 0 0 51.456 38.08z" fill="#5465CF"></path></svg>
