<svg class="icon" style="width: 1em;height: 1em;vertical-align: middle;fill: currentColor;overflow: hidden;" viewBox="0 0 1024 1024" version="1.1" xmlns="http://www.w3.org/2000/svg"><path d="M160 320h704v128H160z" fill="#E0EBFE"></path><path d="M670.176 129.824a32 32 0 1 0 45.248-45.248 288.224 288.224 0 0 0-91.52-61.824 287.968 287.968 0 0 0-223.84 0c-34.24 14.56-65.024 35.36-91.488 61.824s-47.264 57.28-61.824 91.52A284.8 284.8 0 0 0 224 288H160a32 32 0 0 0-32 32v128a32 32 0 0 0 32 32h35.52l60.704 515.744A32 32 0 0 0 288 1024h448a32 32 0 0 0 31.776-28.256L828.48 480H864a32 32 0 0 0 32-32v-128a32 32 0 0 0-32-32h-64a284.8 284.8 0 0 0-22.72-111.936 32 32 0 1 0-58.944 25.056C730.048 228.672 736 257.92 736 288H288c0-30.08 5.952-59.328 17.664-86.88 11.328-26.656 27.52-50.656 48.16-71.296s44.64-36.832 71.296-48.16a223.552 223.552 0 0 1 173.76 0 224.64 224.64 0 0 1 71.296 48.16zM707.52 960H316.448L278.816 640h466.368l-37.632 320z m41.408-352H275.04l-15.04-128h504l-15.04 128zM832 352v64H192v-64h640z" fill="#5465CF" p-id="9010"></path><path d="M388.32 142.144c-33.728 30.208-52.32 70.4-52.32 113.088a16 16 0 1 0 32 0c0-33.504 14.784-65.184 41.664-89.248C437.056 141.472 473.376 128 512 128a16 16 0 1 0 0-32c-46.496 0-90.432 16.384-123.68 46.144z" fill="#5465CF"></path></svg>
