<svg class="icon" style="width: 1em;height: 1em;vertical-align: middle;fill: currentColor;overflow: hidden;" viewBox="0 0 1024 1024" version="1.1" xmlns="http://www.w3.org/2000/svg"><path d="M160 224h704v128H160zM654.4 656c0.576 5.312 1.6 10.528 1.6 16a144 144 0 1 1-288 0c0-5.472 1.024-10.688 1.6-16 8.064-71.904 68.352-128 142.4-128s134.336 56.096 142.4 128z" fill="#E0EBFE"></path><path d="M896 352V224a32 32 0 0 0-32-32h-64V32a32 32 0 0 0-35.968-31.744l-512 64A32 32 0 0 0 224 96v96H160a32 32 0 0 0-32 32v128a32 32 0 0 0 32 32h65.536l30.496 609.6A32 32 0 0 0 288 1024h448a32 32 0 0 0 31.968-30.4L798.464 384H864a32 32 0 0 0 32-32zM288 124.256l448-56V192H288V124.256zM705.568 960H318.4l-14.4-288H352c0 88.224 71.776 160 160 160s160-71.776 160-160h47.968l-14.4 288zM384 672c0-3.104 0.48-6.08 0.864-9.088l0.64-5.12C392.8 592.896 447.2 544 512 544s119.232 48.896 126.464 113.76l0.64 5.152c0.416 3.008 0.896 5.984 0.896 9.088 0 70.592-57.408 128-128 128s-128-57.408-128-128z m337.568-32h-54.24c-15.04-73.76-79.04-128-155.328-128s-140.288 54.24-155.328 128H302.4l-12.8-256h444.704l-12.8 256zM832 320H192V256h640v64z" fill="#5465CF"></path></svg>
