<svg class="icon" style="width: 1.05859375em;height: 1em;vertical-align: middle;fill: #C4D5DD;overflow: hidden;" viewBox="0 0 1084 1024" version="1.1" xmlns="http://www.w3.org/2000/svg"><path d="M542.117647 0c15.329882 0 29.846588 6.746353 39.664941 18.371765l228.442353 271.420235 193.746824-127.879529a52.073412 52.073412 0 0 1 57.705411 0.301176c17.377882 11.715765 25.840941 32.707765 21.38353 53.067294l-129.084235 587.745883A51.501176 51.501176 0 0 1 903.529412 843.294118H180.705882a51.501176 51.501176 0 0 1-50.447058-40.267294L1.174588 215.280941a50.868706 50.868706 0 0 1 21.38353-53.067294 52.073412 52.073412 0 0 1 57.705411-0.301176l193.746824 127.879529L502.452706 18.371765C512.301176 6.746353 526.787765 0 542.117647 0zM120.470588 973.793882c0-27.708235 23.612235-50.176 52.705883-50.176h737.882353c18.823529 0 36.231529 9.547294 45.658352 25.088a48.128 48.128 0 0 1 0 50.206118c-9.426824 15.510588-26.804706 25.088-45.658352 25.088H173.176471C144.082824 1024 120.470588 1001.532235 120.470588 973.793882z m342.588236-351.35247c0 27.708235 23.612235 50.176 52.705882 50.176h52.705882c29.093647 0 52.705882-22.467765 52.705883-50.176 0-27.708235-23.612235-50.206118-52.705883-50.206118h-52.705882c-29.093647 0-52.705882 22.467765-52.705882 50.206118z"></path></svg>
