<svg class="icon" style="width: 1em;height: 1em;vertical-align: middle;fill: currentColor;overflow: hidden;" viewBox="0 0 1024 1024" version="1.1" xmlns="http://www.w3.org/2000/svg" p-id="15818"><path d="M188.525714 478.153143l284.470857 284.452571L795.611429 440.009143a18.285714 18.285714 0 0 0 5.357714-12.891429l0.585143-259.181714a18.304 18.304 0 0 0-18.322286-18.322286l-259.181714 0.585143a18.285714 18.285714 0 0 0-12.891429 5.357714L188.544 478.153143zM149.76 516.937143l-25.874286 25.874286a18.285714 18.285714 0 0 0 0 25.856L382.482286 827.245714a18.285714 18.285714 0 0 0 25.874285 0l25.856-25.856L149.76 516.937143zM850.468571 138.971429l24.009143 1.28c40.448 2.139429 72.978286 35.766857 73.728 76.251428l4.534857 245.540572a88.722286 88.722286 0 0 1-25.801142 64.548571L541.750857 911.817143c-23.149714 23.149714-60.818286 22.308571-84.150857-1.042286l-30.482286-30.482286a73.179429 73.179429 0 0 1-83.419428-14.226285L85.101714 607.451429a73.142857 73.142857 0 0 1 0-103.442286L472.356571 116.772571a73.142857 73.142857 0 0 1 51.565715-21.430857l259.163428-0.585143a73.161143 73.161143 0 0 1 67.364572 44.233143z m5.851429 55.259428l-0.512 233.014857a73.142857 73.142857 0 0 1-21.412571 51.565715L468.809143 844.379429l27.574857 27.593142c2.304 2.285714 5.248 2.358857 6.582857 1.024L888.137143 487.808c6.381714-6.4 9.910857-15.232 9.728-24.758857l-4.516572-245.540572a23.424 23.424 0 0 0-21.778285-22.473142l-15.250286-0.804572z m-266.953143 167.552a36.571429 36.571429 0 1 0 51.730286-51.712 36.571429 36.571429 0 0 0-51.730286 51.712z m-38.784 38.784a91.428571 91.428571 0 1 1 129.28-129.28 91.428571 91.428571 0 0 1-129.28 129.28z"></path></svg>
