<svg class="icon" style="width: 1em;height: 1em;vertical-align: middle;fill: currentColor;overflow: hidden;" viewBox="0 0 1024 1024" version="1.1" xmlns="http://www.w3.org/2000/svg"><path d="M935.487595 252.90194 794.069749 252.90194c14.862499-19.696598 23.604604-44.201711 23.604604-70.687946 0-64.933895-52.882418-117.804033-117.815289-117.804033-65.527412 0-120.479979 51.885717-147.347906 82.835613-16.321734 18.730597-30.356378 38.790468-41.144072 58.208726-10.79588-19.419282-24.831548-39.432081-41.143049-58.208726-26.895557-30.903847-81.849146-82.835613-147.358139-82.835613-64.932872 0-117.813243 52.871161-117.813243 117.804033 0 26.486234 8.816806 50.991348 23.612791 70.687946L87.249645 252.90194c-13.001105 0-23.565718 10.565636-23.565718 23.567765l0 141.368728c0 13.002129 10.564613 23.566742 23.565718 23.566742l23.558555 0 0 447.674972c0 38.986943 31.712259 70.689992 70.687946 70.689992l659.742902 0c38.97671 0 70.680782-31.703049 70.680782-70.689992L911.91983 441.404152l23.566742 0c12.972453 0 23.556509-10.564613 23.556509-23.566742L959.043081 276.469706C959.043081 263.467577 948.459025 252.90194 935.487595 252.90194zM588.038302 178.167842c36.856419-42.360783 77.589123-66.633606 111.821785-66.633606 38.98592 0 70.689992 31.703049 70.689992 70.679759 0 38.984896-31.704073 70.687946-70.689992 70.687946L540.681738 252.90194C548.829302 232.079706 565.299415 204.264197 588.038302 178.167842zM582.047868 912.646889 440.67914 912.646889 440.67914 300.026214l141.368728 0L582.047868 912.646889zM252.186138 182.213995c0-38.97671 31.702026-70.679759 70.679759-70.679759 34.215266 0 74.966389 24.272823 111.834065 66.633606 22.709211 26.096355 39.207977 53.911864 47.353494 74.734098L322.86692 252.90194C283.888164 252.90194 252.186138 221.198891 252.186138 182.213995zM110.8082 300.026214l282.747689 0 0 94.255711L110.8082 394.281925 110.8082 300.026214zM157.930427 889.079124 157.930427 441.404152l235.624439 0 0 471.241714L181.496146 912.645866C168.49504 912.646889 157.930427 902.063857 157.930427 889.079124zM864.795557 889.079124c0 12.983709-10.580986 23.566742-23.556509 23.566742l-212.059743 0L629.179304 441.404152l235.616252 0L864.795557 889.079124zM911.91983 394.281925 629.179304 394.281925 629.179304 300.026214l282.741549 0L911.920854 394.281925z"></path></svg>
