<svg class="icon" style="width: 1.0634765625em;height: 1em;vertical-align: middle;fill: currentColor;overflow: hidden;" viewBox="0 0 1089 1024" version="1.1" xmlns="http://www.w3.org/2000/svg"><path d="M926.297385 108.256175H161.293015A53.180374 53.180374 0 0 1 109.093024 54.117203c0-27.8429 17.102251-54.117186 61.263094-54.117186h748.947862c41.285051 0 61.480957 26.274286 61.480958 54.117186a57.080123 57.080123 0 0 1-54.487553 54.138972zM980.545288 162.37336l109.018678 240.869406c0 74.182374-60.870941 138.125184-136.14263 138.125184-75.249903 0-136.207989-63.94281-136.207988-138.125184a138.800559 138.800559 0 0 1-39.9343 96.861919 134.290794 134.290794 0 0 1-96.273689 41.263265c-75.271689 0-136.207989-63.94281-136.207989-138.125184a138.97485 138.97485 0 0 1-39.868941 96.861919 134.225435 134.225435 0 0 1-96.20833 41.263265c-75.184544 0-136.207989-63.94281-136.207989-138.125184a139.040209 139.040209 0 0 1-39.847155 96.861919 134.31258 134.31258 0 0 1-96.360834 41.263265C61.119577 541.36795 0.161491 477.42514 0.161491 403.242766L109.093024 162.37336h871.452264zM163.580577 568.470115c30.086889 0 54.465766 24.226373 54.465767 54.117186v245.27024h415.595584c0.108932 0.326795 0.283222 0.58823 0.392154 0.893238a224.006804 224.006804 0 0 1-6.949832-24.466022c-27.123952-122.874769 51.154248-244.355215 174.813324-271.304876l6.034807-1.198247h2.113272l5.555508-0.915025 10.065274-1.394324 12.396408-1.00217h12.592485a254.093694 254.093694 0 0 1 37.995319 3.202587c9.215608 1.394324 18.300498 3.485809 27.211097 6.209098l8.758095 2.810433 11.394238 4.291903h1.111102l6.339815 2.810433 2.723289 1.198247h1.00217l0.41394-0.087145a228.124416 228.124416 0 0 1 127.319175 157.776432c27.123952 122.896556-51.132462 244.377001-174.813324 271.326663a229.845535 229.845535 0 0 1-191.153054-43.746904l0.23965 0.217863H163.580577A57.080123 57.080123 0 0 1 109.093024 920.340753V622.587301a54.313262 54.313262 0 0 1 54.487553-54.117186z m680.386355 372.371553a12.810348 12.810348 0 0 0 14.073954 0c26.775371-17.494404 122.613334-84.007998 122.613334-163.135864 0-71.415513-57.777285-128.844217-129.650311-128.844217-71.873025 0-129.650311 57.428704-129.65031 128.844217 0 79.127866 95.837963 146.338621 122.613333 163.135864z m7.036977-227.557973a64.443895 64.443895 0 0 1 64.814262 64.422109 64.443895 64.443895 0 0 1-64.814262 64.422109 64.443895 64.443895 0 0 1-64.814262-64.422109 64.443895 64.443895 0 0 1 64.814262-64.422109z" fill="#0824A8" ></path></svg>
