<svg class="icon" style="width: 1em;height: 1em;vertical-align: middle;fill: currentColor;overflow: hidden;" viewBox="0 0 1024 1024" version="1.1" xmlns="http://www.w3.org/2000/svg"><path d="M928 170.666667H96a53.393333 53.393333 0 0 0-53.333333 53.333333v618.666667a53.393333 53.393333 0 0 0 53.333333 53.333333h832a53.393333 53.393333 0 0 0 53.333333-53.333333V224a53.393333 53.393333 0 0 0-53.333333-53.333333z m10.666667 672a10.666667 10.666667 0 0 1-10.666667 10.666666H96a10.666667 10.666667 0 0 1-10.666667-10.666666V426.666667h853.333334z m0-458.666667H85.333333V298.666667h853.333334z m0-128H85.333333v-32a10.666667 10.666667 0 0 1 10.666667-10.666667h832a10.666667 10.666667 0 0 1 10.666667 10.666667z m-341.333334 448a21.333333 21.333333 0 0 1 21.333334-21.333333h128a21.333333 21.333333 0 0 1 0 42.666666H618.666667a21.333333 21.333333 0 0 1-21.333334-21.333333z m-389.333333 64h224a37.373333 37.373333 0 0 0 37.333333-37.333333V592a37.373333 37.373333 0 0 0-37.333333-37.333333H208a37.373333 37.373333 0 0 0-37.333333 37.333333v138.666667a37.373333 37.373333 0 0 0 37.333333 37.333333z m5.333333-170.666667h213.333334v128H213.333333z m597.333334 106.666667a21.333333 21.333333 0 1 1 21.333333 21.333333 21.333333 21.333333 0 0 1-21.333333-21.333333z"></path></svg>
