<svg class="icon" style="width: 1em;height: 1em;vertical-align: middle;fill: currentColor;overflow: hidden;" viewBox="0 0 1024 1024" version="1.1" xmlns="http://www.w3.org/2000/svg"><path d="M512.000512 128.401392c-211.866339 0-383.599631 171.743526-383.599632 383.595538 0 211.854059 171.733293 383.601678 383.599632 383.601678 211.854059 0 383.597585-171.747619 383.597584-383.601678 0-211.852012-171.743526-383.595538-383.597584-383.595538z m0 719.249181c-185.378058 0-335.657736-150.282748-335.657736-335.653643 0-185.376011 150.278655-335.645456 335.657736-335.645456 185.376011 0 335.645456 150.269445 335.645456 335.645456 0 185.370895-150.269445 335.653643-335.645456 335.653643zM368.165616 377.75246h-38.367843c-15.888875 0-28.770254 12.881378-28.770254 28.770254 0 15.886829 12.881378 28.768207 28.770254 28.768207h38.367843c15.888875 0 28.768207-12.881378 28.768207-28.768207 0-15.888875-12.879332-28.770254-28.768207-28.770254z m326.060147 0H464.057593c-15.888875 0-28.768207 12.881378-28.768207 28.770254 0 15.886829 12.879332 28.768207 28.768207 28.768207H694.22474c15.888875 0 28.768207-12.881378 28.768207-28.768207 0.001023-15.888875-12.878309-28.770254-28.767184-28.770254zM368.165616 492.828358h-38.367843c-15.888875 0-28.770254 12.883425-28.770254 28.770254 0 15.892969 12.881378 28.77537 28.770254 28.77537h38.367843c15.888875 0 28.768207-12.883425 28.768207-28.77537 0-15.886829-12.879332-28.770254-28.768207-28.770254z m326.060147 0H464.057593c-15.888875 0-28.768207 12.883425-28.768207 28.770254 0 15.892969 12.879332 28.77537 28.768207 28.77537H694.22474c15.888875 0 28.768207-12.883425 28.768207-28.77537 0.001023-15.886829-12.878309-28.770254-28.767184-28.770254zM368.165616 607.912443h-38.367843c-15.888875 0-28.770254 12.881378-28.770254 28.770254 0 15.886829 12.881378 28.768207 28.770254 28.768207h38.367843c15.888875 0 28.768207-12.881378 28.768207-28.768207 0-15.888875-12.879332-28.770254-28.768207-28.770254z m326.060147 0H464.057593c-15.888875 0-28.768207 12.881378-28.768207 28.770254 0 15.886829 12.879332 28.768207 28.768207 28.768207H694.22474c15.888875 0 28.768207-12.881378 28.768207-28.768207 0.001023-15.888875-12.878309-28.770254-28.767184-28.770254z" fill="#999"></path></svg>
