<svg class="icon" style="width: 1em;height: 1em;vertical-align: middle;fill: currentColor;overflow: hidden;" viewBox="0 0 1024 1024" version="1.1" xmlns="http://www.w3.org/2000/svg"><path d="M643.64 940.56c0 7.92-7.92 15.83-15.84 15.83h-31.67c-7.92 0-15.84-7.91-15.84-15.83v-31.67c0-7.92 7.92-15.84 15.84-15.84h31.67c7.92 0 15.84 7.92 15.84 15.84v31.67zM643.64 782.2c0-7.92-7.92-15.84-15.84-15.84h-31.67c-7.92 0-15.84 7.92-15.84 15.84v31.67c0 7.92 7.92 15.84 15.84 15.84h31.67c7.92 0 15.84-7.92 15.84-15.84V782.2zM643.64 655.51c0-7.91-7.92-15.83-15.84-15.83h-31.67c-7.92 0-15.84 7.92-15.84 15.83v31.68c0 7.91 7.92 15.83 15.84 15.83h31.67c7.92 0 15.84-7.92 15.84-15.83v-31.68zM960.35 940.56v-31.67c0-7.92-7.92-15.84-15.83-15.84h-221.7c-7.92 0-15.84 7.92-15.84 15.84v31.67c0 7.92 7.92 15.83 15.84 15.83h221.7c9.9 0 15.83-5.93 15.83-15.83zM960.35 813.87V782.2c0-7.92-7.92-15.84-15.83-15.84h-221.7c-7.92 0-15.84 7.92-15.84 15.84v31.67c0 7.92 7.92 15.84 15.84 15.84h221.7c9.9 0 15.83-5.94 15.83-15.84zM960.35 687.19v-31.68c0-7.91-7.92-15.83-15.83-15.83h-221.7c-7.92 0-15.84 7.92-15.84 15.83v31.68c0 7.91 7.92 15.83 15.84 15.83h221.7c9.9 0 15.83-5.94 15.83-15.83zM170.54 673.33l-57.4 25.73C184.4 851.48 338.8 956.39 516.96 956.39v-63.34c-152.43 0-285.06-89.08-346.42-219.72zM548.62 255.66c0-15.84-13.86-29.69-29.69-29.69h-3.96c-15.84 0-29.69 13.85-29.69 29.69v239.52l-134.61 79.18c-15.83 7.91-19.79 27.71-11.87 43.54 7.92 15.84 27.71 19.8 43.55 11.88l150.44-87.1c5.93-3.96 11.87-9.89 13.85-17.81 1.98-3.96 1.98-5.94 1.98-9.9V255.66z" fill="#999" p-id="51769"></path><path d="M516.95 67.61c-178.15 0-332.55 104.91-403.82 259.31l-49.49-19.79 25.73 168.25L222 368.49l-49.49-19.79c61.36-128.67 192.01-217.75 344.43-217.75C726.77 130.95 897 301.19 897 511.01c0 21.78-1.98 43.55-5.94 63.35h63.34c3.96-19.8 3.96-41.57 3.96-63.35 1.99-243.48-195.96-443.4-441.41-443.4z" fill="#999"></path></svg>
