<svg class="icon" style="width: 1em;height: 1em;vertical-align: middle;fill: currentColor;overflow: hidden;" viewBox="0 0 1024 1024" version="1.1" xmlns="http://www.w3.org/2000/svg" p-id="12998">
<path d="M531.626667 153.6c36.352 0 68.096 19.797333 85.060266 49.152a58.88 58.88 0 0 1 91.579734 48.981333 117.76 117.76 0 0 1 100.181333 179.712 78.4384 78.4384 0 0 1-21.674667 153.941334 78.336 78.336 0 0 1-59.221333-26.965334 215.9616 215.9616 0 0 1-379.733333 22.493867 117.76 117.76 0 1 1-109.4656-205.141333 78.506667 78.506667 0 0 1 88.337066-64.4096 78.506667 78.506667 0 0 1 116.224-101.614934A98.0992 98.0992 0 0 1 531.626667 153.6z" fill="#fff"></path>
<path d="M708.266667 251.733333a117.76 117.76 0 0 1 100.181333 179.712 78.4384 78.4384 0 0 1-21.674667 153.941334 78.336 78.336 0 0 1-59.221333-26.965334 215.9616 215.9616 0 0 1-379.733333 22.493867 117.794133 117.794133 0 0 1-182.442667-54.613333 116.974933 116.974933 0 0 0 47.342933-12.9024c32.426667 8.9088 71.236267 12.014933 109.704534 12.970666l14.779733 0.273067 14.609067 0.1024h14.4384c14.267733-0.034133 28.125867-0.170667 41.1648-0.238933h6.4512c29.559467 0 67.822933 1.706667 107.8272 1.911466h16.0768c102.229333-0.477867 209.749333-12.868267 209.749333-87.790933 0-2.048-0.068267-4.096-0.238933-6.178133a78.1312 78.1312 0 0 0-23.381334-62.122667c-7.168-11.434667-15.701333-22.903467-25.429333-34.269867a117.6576 117.6576 0 0 0-42.2912-144.827733 58.914133 58.914133 0 0 1 52.087467 58.504533z" fill="#C4D5DD"></path>
<path d="M531.626667 153.6c36.386133 0 68.164267 19.797333 85.0944 49.2544 9.284267-6.3488 20.548267-10.001067 32.6656-10.001067 32.529067 0 58.88 26.350933 58.88 58.88a117.76 117.76 0 0 1 100.181333 179.677867 78.506667 78.506667 0 1 1-80.896 126.976l-3.003733 6.280533a215.893333 215.893333 0 0 1-376.7296 16.247467 117.76 117.76 0 1 1-109.431467-205.1072 78.506667 78.506667 0 0 1 88.3712-64.443733 78.506667 78.506667 0 0 1 116.155733-101.614934A98.065067 98.065067 0 0 1 531.626667 153.6z m0 33.757867c-23.210667 0-44.168533 12.3904-55.534934 31.812266l-2.6624 5.0176a33.792 33.792 0 0 1-47.957333 14.472534l-3.515733-2.423467a44.7488 44.7488 0 0 0-68.471467 53.589333l2.218667 4.1984a33.757867 33.757867 0 0 1-33.655467 50.7904 44.782933 44.782933 0 0 0-49.322667 31.8464l-1.092266 4.8128a33.757867 33.757867 0 0 1-22.357334 26.282667 84.036267 84.036267 0 0 0 27.204267 163.498667c18.705067 0 36.352-6.075733 50.7904-17.134934a33.757867 33.757867 0 0 1 49.2544 9.045334 181.9648 181.9648 0 0 0 155.101867 86.596266 181.930667 181.930667 0 0 0 158.276266-91.8528l4.164267-7.748266 2.9696-6.280534a33.792 33.792 0 0 1 52.804267-10.820266l3.140266 3.1744a44.7488 44.7488 0 1 0 50.824534-70.7584l-4.608-1.604267a33.792 33.792 0 0 1-21.504-46.353067l2.048-3.857066a84.002133 84.002133 0 0 0-71.4752-128.170667 33.792 33.792 0 0 1-33.4848-29.525333l-0.273067-4.232534a25.122133 25.122133 0 0 0-35.703467-22.766933l-3.072 1.774933a33.792 33.792 0 0 1-45.7728-7.338666l-2.491733-3.720534a64.341333 64.341333 0 0 0-55.842133-32.324266z" fill="#C4D5DD"></path>
<path d="M170.973867 555.076267h682.052266a39.253333 39.253333 0 0 1 37.853867 49.664l-48.981333 178.107733a78.506667 78.506667 0 0 1-75.707734 57.685333H257.809067a78.506667 78.506667 0 0 1-75.707734-57.685333L133.12 604.740267a39.253333 39.253333 0 0 1 37.853867-49.664z" fill="#C4D5DD"></path>
<path d="M853.026133 555.076267a39.253333 39.253333 0 0 1 37.853867 49.664l-48.981333 178.107733a78.506667 78.506667 0 0 1-75.707734 57.685333H257.809067a78.506667 78.506667 0 0 1-75.707734-57.685333L133.12 604.740267a39.253333 39.253333 0 0 1 37.853867-49.664h682.052266z m0 33.792H170.973867a5.495467 5.495467 0 0 0-5.461334 5.188266l0.170667 1.7408 48.981333 178.107734c4.881067 17.783467 20.138667 30.583467 38.161067 32.597333l4.983467 0.273067h508.381866c18.466133 0 34.850133-11.298133 41.5744-28.16l1.570134-4.7104 48.981333-178.107734a5.495467 5.495467 0 0 0-5.290667-6.9632zM575.146667 306.9952c33.109333-11.9808 60.552533-7.543467 78.2336 15.086933 7.714133 9.864533 13.1072 20.616533 16.213333 32.187734l1.604267 7.5776 2.730666-0.955734c15.735467-5.3248 29.5936-4.778667 41.198934 2.730667l3.754666 2.730667c16.9984 13.789867 21.777067 33.9968 14.779734 57.070933a16.896 16.896 0 0 1-32.290134-9.728c3.208533-10.717867 1.8432-16.5888-3.754666-21.162667-4.027733-3.242667-14.609067-1.297067-33.314134 10.752a16.861867 16.861867 0 0 1-25.941333-16.1792c2.082133-17.271467-1.7408-31.675733-11.5712-44.2368-7.543467-9.659733-19.5584-11.605333-40.106667-4.130133a16.861867 16.861867 0 0 1-11.537066-31.744z" fill="#C4D5DD"></path>
<path d="M431.3088 714.205867c1.672533 11.741867 11.093333 20.138667 21.0944 18.7392 9.966933-1.399467 16.725333-12.0832 15.086933-23.825067-1.6384-11.741867-11.093333-20.138667-21.060266-18.7392-10.001067 1.399467-16.725333 12.0832-15.121067 23.825067zM577.092267 734.6176c6.280533 0.443733 12.356267-3.242667 15.9744-9.659733a25.6 25.6 0 0 0 1.536-21.4016c-2.696533-6.8608-8.192-11.3664-14.472534-11.810134-6.280533-0.443733-12.356267 3.208533-15.9744 9.6256a25.6 25.6 0 0 0-1.536 21.435734c2.6624 6.826667 8.192 11.3664 14.472534 11.810133zM470.766933 676.283733c1.194667 8.465067 5.802667 15.803733 12.1856 19.2512 6.3488 3.413333 13.4144 2.423467 18.568534-2.628266 5.188267-5.051733 7.611733-13.380267 6.417066-21.845334-1.194667-8.533333-5.802667-15.837867-12.1856-19.285333a15.325867 15.325867 0 0 0-18.602666 2.628267c-5.12 5.051733-7.5776 13.380267-6.382934 21.845333zM541.457067 696.763733c10.376533-0.2048 18.5344-11.127467 18.2272-24.3712-0.3072-13.243733-8.942933-23.790933-19.319467-23.552-6.690133 0.136533-12.8 4.846933-15.9744 12.322134a29.832533 29.832533 0 0 0 0.546133 23.995733c3.515733 7.338667 9.796267 11.776 16.520534 11.605333zM556.885333 739.601067c1.501867 20.343467-16.452267 33.8944-39.662933 35.601066-23.2448 1.706667-43.008-9.045333-44.509867-29.354666-1.536-20.3776 16.896-36.010667 39.355734-39.970134 23.9616 1.399467 43.3152 13.380267 44.817066 33.723734z" fill="#fff"></path>
<path d="M261.461333 461.038933l12.834134-14.9504c39.1168-44.578133 64.682667-63.0784 87.074133-55.364266a19.626667 19.626667 0 1 1-12.765867 37.137066l-2.3552 1.7408-3.754666 3.208534-8.533334 7.850666-7.441066 7.2704-8.704 8.942934-9.8304 10.5472-10.786134 12.1856-5.700266 6.690133a19.626667 19.626667 0 1 1-30.037334-25.258667z" fill="#C4D5DD"></path>
</svg>
