<svg class="icon" style="width: 1em;height: 1em;vertical-align: middle;fill: currentColor;overflow: hidden;" viewBox="0 0 1024 1024" version="1.1" xmlns="http://www.w3.org/2000/svg"><path d="M128 810.666667v-85.333334h768v85.333334zM725.333333 298.666667v128h-85.333333V298.666667H384v128H298.666667V298.666667H208.341333L139.349333 896h745.301334L815.658667 298.666667H725.333333z m-256-256h85.333334a170.666667 170.666667 0 0 1 170.666666 170.666666h165.674667L981.333333 981.333333H42.666667L132.992 213.333333H298.666667a170.666667 170.666667 0 0 1 170.666666-170.666666z m170.666667 170.666666a85.333333 85.333333 0 0 0-85.333333-85.333333h-85.333334a85.333333 85.333333 0 0 0-85.333333 85.333333h256z" fill="#0824A8"></path></svg>
