<svg class="icon" style="width: 1.625em;height: 1em;vertical-align: middle;fill: currentColor;overflow: hidden;" viewBox="0 0 1664 1024" version="1.1" xmlns="http://www.w3.org/2000/svg"><path d="M739.264 518.955a232.704 232.704 0 0 0 234.155-238.187 236.181 236.181 0 1 0-234.155 238.187z m232.128 103.04a271.808 271.808 0 0 0-157.44-46.422H676.693a285.867 285.867 0 0 0-157.44 44.416A305.301 305.301 0 0 0 384 872.32v18.176c0 88.81 129.195 90.837 294.699 90.837h137.258c165.526 0 294.699 0 294.699-90.837V872.32a297.835 297.835 0 0 0-139.285-250.304z" fill="#0824A8"></path><path d="M1161.067 564.65a258.133 258.133 0 0 0-94.87-44.543 176.832 176.832 0 0 0 100.928-157.867c0-99.221-70.656-184.256-165.525-184.256 36.267 38.4 46.421 101.248 38.4 155.904a245.93 245.93 0 0 1-133.227 190.336c42.39 4.053 88.811 34.41 123.136 58.71a275.883 275.883 0 0 1 127.168 232.853v26.325c68.63-4.053 113.067-20.245 113.067-64.79v-14.165c6.059-72.896-68.63-174.144-108.992-198.4z" fill="#0824A8"></path></svg>
