<svg class="icon" style="width: 1em;height: 1em;vertical-align: middle;fill: currentColor;overflow: hidden;" viewBox="0 0 1024 1024" version="1.1" xmlns="http://www.w3.org/2000/svg"><path d="M973.55320889 220.72888889h-116.50844444v125.47072c0 17.92455111-13.44398222 35.84910222-26.88682667 35.84910222S803.27111111 368.60472889 803.27111111 346.19960889V220.72888889H686.76266667c-22.40512 0-40.32967111-13.44284445-40.32967112-26.88568889s17.92455111-26.88796445 40.32967112-26.88796445H803.27111111v-116.50844444c0-22.40512 13.44284445-35.84796445 26.88568889-35.84796444s26.88796445 17.92455111 26.88796445 35.84796444v120.99015111h116.50844444c22.40512 0 40.32967111 13.44284445 40.32967111 26.88568889S995.95832889 220.72888889 973.55320889 220.72888889M646.43299555 337.23733333L520.96227555 467.18862222h103.0656c17.92341333 0 35.84796445 13.44398222 35.84796445 35.84910223 0 17.92455111-13.44284445 35.84910222-35.84796445 35.84910222h-103.0656v67.21649778h103.0656c17.92341333 0 35.84796445 13.44284445 35.84796445 35.84796444 0 17.92455111-13.44284445 35.84910222-35.84796445 35.84910222h-103.0656v98.58389334c0 17.92455111-13.44284445 35.84910222-35.84910222 35.84910222s-35.84796445-13.44284445-35.84796444-35.84910222v-98.58389334h-98.58503111c-17.92341333 0-35.84796445-13.44284445-35.84796445-35.84910222 0-17.92341333 13.44284445-35.84796445 35.84796445-35.84796444h98.58503111V538.88568889h-98.58503111c-17.92341333 0-35.84796445-13.44398222-35.84796445-35.84910222 0-17.92455111 13.44284445-35.84910222 35.84796445-35.84910222h98.58503111v-4.4805689L328.27505778 337.23733333c-13.44284445-13.44284445-13.44284445-35.84910222 0-49.29194666 13.44284445-13.44284445 35.84910222-13.44284445 49.29194667 0l112.02787555 112.02673778 107.54616889-112.02673778c13.44284445-13.44284445 35.84796445-13.44284445 49.29194666 0 13.44284445 17.92455111 13.44284445 35.84910222 0 49.29194666" fill="#999"></path><path d="M498.55715555 131.10613333h-13.44398222c-224.05461333 0-407.77955555 183.72608-407.77955555 407.77955556s183.72494222 407.77955555 407.77955555 407.77955556 407.77955555-183.72380445 407.77955556-407.77955556c0-17.92341333 13.44398222-31.36625778 35.84910222-31.36625778 17.92455111 0 31.36853333 13.44284445 31.36853334 31.36739556V512v22.40512c0 259.90371555-210.61290667 474.99605333-474.99719112 474.99605333-259.90257778 0-474.99605333-210.61063111-474.99605333-474.99605333 0-255.42200889 215.09233778-470.51434667 474.99605333-470.51434667h13.44398222c17.92341333 0 35.84796445 13.44284445 35.84796445 35.84910222-4.48056889 17.92341333-17.92455111 31.36739555-35.84796445 31.36739556" fill="#999"></path></svg>
